<svg xmlns="http://www.w3.org/2000/svg" xmlns:xlink="http://www.w3.org/1999/xlink" width="445.383" height="130.164" viewBox="0 0 445.383 130.164">
  <defs>
    <radialGradient id="radial-gradient" cx="0.498" cy="0.501" r="1.356" gradientTransform="matrix(0.369, 0, 0, -0.371, -0.289, 2.265)" gradientUnits="objectBoundingBox">
      <stop offset="0" stop-color="#3a4149"/>
      <stop offset="0.49" stop-color="#97aac6"/>
      <stop offset="1" stop-color="#39515d"/>
    </radialGradient>
    <filter id="Path_489" x="0" y="0.001" width="445.383" height="130.164" filterUnits="userSpaceOnUse">
      <feOffset dy="3" input="SourceAlpha"/>
      <feGaussianBlur stdDeviation="3" result="blur"/>
      <feFlood flood-opacity="0.396"/>
      <feComposite operator="in" in2="blur"/>
      <feComposite in="SourceGraphic"/>
    </filter>
    <linearGradient id="linear-gradient" x1="0.5" y1="1" x2="0.5" y2="-0.363" gradientUnits="objectBoundingBox">
      <stop offset="0" stop-color="#97aac6"/>
      <stop offset="0" stop-color="#84a2c2"/>
      <stop offset="0.123" stop-color="#7090ad"/>
      <stop offset="0.276" stop-color="#4a7288"/>
      <stop offset="0.453" stop-color="#285669"/>
      <stop offset="0.601" stop-color="#104655"/>
      <stop offset="0.808" stop-color="#053c4c"/>
      <stop offset="1" stop-color="#003948"/>
    </linearGradient>
  </defs>
  <g id="right_button" data-name="right button" transform="translate(-15035.496 -22088.85)">
    <g id="Group_209" data-name="Group 209" transform="translate(15044.496 22094.85)">
      <g id="Group_170" data-name="Group 170" transform="translate(0 0)">
        <g id="Group_169" data-name="Group 169" transform="translate(0 0)">
          <g id="Layer_2" data-name="Layer 2" transform="translate(0 0)">
            <g id="Group_129" data-name="Group 129" transform="translate(0 0)">
              <g id="Path_444" data-name="Path 444">
                <g transform="matrix(1, 0, 0, 1, -9, -6)" filter="url(#Path_489)">
                  <path id="Path_489-2" data-name="Path 489" d="M-19.284,120.146c-1.6,0-2.9-2.266-2.9-3.869l-.164-85.625A5.358,5.358,0,0,1-19.8,26.416L9.693,10.941a14.111,14.111,0,0,1,5.474-1.335L402.131,9.2a2.7,2.7,0,0,1,2.9,2.718V99.593a4.449,4.449,0,0,1-2.728,3.869s-15.524,10.731-22.82,15.194c-.2.132-.471.308-1.044.665-1.183.742-3.624,2.112-5.32,1.993C365.69,121.52,191.452,120.964-19.284,120.146Z" transform="translate(31.35 -3.19)" fill="url(#radial-gradient)"/>
                </g>
              </g>
              <path id="Path_445" data-name="Path 445" d="M393.821,94.425,373.606,107.58-8.95,108.694V35.187L15.443,22.246l379.091-.116Z" transform="translate(20.943 -9.617)" stroke="#0086bc" stroke-linecap="round" stroke-linejoin="round" stroke-width="1" fill="url(#linear-gradient)"/>
            </g>
          </g>
          <g id="Group_194" data-name="Group 194" transform="translate(98.45 44.03)">
            <text id="NO_THANKS_" data-name="NO, THANKS!" transform="translate(0 34)" fill="#213743" font-size="37" font-family="NasalizationRg-Regular, Nasalization"><tspan x="0" y="0">NO, THANKS!</tspan></text>
          </g>
          <g id="Group_168" data-name="Group 168" transform="translate(12.573 13.141)">
            <g id="Path_582" data-name="Path 582" transform="translate(0 0)">
              <path id="Path_583" data-name="Path 583" d="M2700.412,691.469l25.768-14.342H3102v70.858l-21.537,14.03H2700.412Z" transform="translate(-2700.412 -677.128)" fill="none" stroke="#8aacda" stroke-linecap="round" stroke-linejoin="round" stroke-width="7" opacity="0.2"/>
              <path id="Path_584" data-name="Path 584" d="M2700.412,691.469l25.768-14.342H3102v70.858l-21.537,14.03H2700.412Z" transform="translate(-2700.412 -677.128)" fill="none" stroke="#709cd2" stroke-linecap="round" stroke-linejoin="round" stroke-width="6" opacity="0.25"/>
              <path id="Path_585" data-name="Path 585" d="M2700.412,691.469l25.768-14.342H3102v70.858l-21.537,14.03H2700.412Z" transform="translate(-2700.412 -677.128)" fill="none" stroke="#5e93cd" stroke-linecap="round" stroke-linejoin="round" stroke-width="5" opacity="0.3"/>
              <path id="Path_586" data-name="Path 586" d="M2700.412,691.469l25.768-14.342H3102v70.858l-21.537,14.03H2700.412Z" transform="translate(-2700.412 -677.128)" fill="none" stroke="#0073bc" stroke-linecap="round" stroke-linejoin="round" stroke-width="4"/>
              <path id="Path_587" data-name="Path 587" d="M2700.412,691.469l25.768-14.342H3102v70.858l-21.537,14.03H2700.412Z" transform="translate(-2700.412 -677.128)" fill="none" stroke="#3081c4" stroke-linecap="round" stroke-linejoin="round" stroke-width="3.25"/>
              <path id="Path_588" data-name="Path 588" d="M2700.412,691.469l25.768-14.342H3102v70.858l-21.537,14.03H2700.412Z" transform="translate(-2700.412 -677.128)" fill="none" stroke="#578fcb" stroke-linecap="round" stroke-linejoin="round" stroke-width="2.5"/>
              <path id="Path_589" data-name="Path 589" d="M2700.412,691.469l25.768-14.342H3102v70.858l-21.537,14.03H2700.412Z" transform="translate(-2700.412 -677.128)" fill="none" stroke="#7ea4d6" stroke-linecap="round" stroke-linejoin="round" stroke-width="1.65"/>
              <path id="Path_590" data-name="Path 590" d="M2700.412,691.469l25.768-14.342H3102v70.858l-21.537,14.03H2700.412Z" transform="translate(-2700.412 -677.128)" fill="none" stroke="#a9c0e4" stroke-linecap="round" stroke-linejoin="round" stroke-width="0.65"/>
            </g>
          </g>
          <g id="Group_132" data-name="Group 132" transform="translate(84.621 32.894)">
            <text id="NO_THANKS_2" data-name="NO, THANKS!" transform="translate(0 34)" fill="#6bbdec" font-size="37" font-family="NasalizationRg-Regular, Nasalization"><tspan x="0" y="0">NO, THANKS!</tspan></text>
          </g>
        </g>
      </g>
      <g id="Group_140" data-name="Group 140" transform="translate(368.176 56.741)">
        <g id="Group_175" data-name="Group 175" transform="translate(0 0)">
          <path id="Path_539" data-name="Path 539" d="M2933.451,831.4v26.421l-22.423,14.051-23.532-.006" transform="translate(-2887.496 -831.404)" fill="none" stroke="#90cfe0" stroke-linecap="round" stroke-linejoin="round" stroke-width="7" opacity="0.2" style="isolation: isolate"/>
          <path id="Path_540" data-name="Path 540" d="M2933.451,831.4v26.421l-22.423,14.051-23.532-.006" transform="translate(-2887.496 -831.404)" fill="none" stroke="#7dc8dc" stroke-linecap="round" stroke-linejoin="round" stroke-width="6" opacity="0.25" style="isolation: isolate"/>
          <path id="Path_541" data-name="Path 541" d="M2933.451,831.4v26.421l-22.423,14.051-23.532-.006" transform="translate(-2887.496 -831.404)" fill="none" stroke="#3ab7d1" stroke-linecap="round" stroke-linejoin="round" stroke-width="5" opacity="0.3" style="isolation: isolate"/>
          <path id="Path_542" data-name="Path 542" d="M2933.451,831.4v26.421l-22.423,14.051-23.532-.006" transform="translate(-2887.496 -831.404)" fill="none" stroke="#3ab7d1" stroke-linecap="round" stroke-linejoin="round" stroke-width="4"/>
          <path id="Path_543" data-name="Path 543" d="M2933.451,831.4v26.421l-22.423,14.051-23.532-.006" transform="translate(-2887.496 -831.404)" fill="none" stroke="#5fbfd6" stroke-linecap="round" stroke-linejoin="round" stroke-width="3.25"/>
          <path id="Path_544" data-name="Path 544" d="M2933.451,831.4v26.421l-22.423,14.051-23.532-.006" transform="translate(-2887.496 -831.404)" fill="none" stroke="#7cc8db" stroke-linecap="round" stroke-linejoin="round" stroke-width="2.5"/>
          <path id="Path_545" data-name="Path 545" d="M2933.451,831.4v26.421l-22.423,14.051-23.532-.006" transform="translate(-2887.496 -831.404)" fill="none" stroke="#9dd4e3" stroke-linecap="round" stroke-linejoin="round" stroke-width="1.65"/>
          <path id="Path_546" data-name="Path 546" d="M2933.451,831.4v26.421l-22.423,14.051-23.532-.006" transform="translate(-2887.496 -831.404)" fill="none" stroke="#cae6ee" stroke-linecap="round" stroke-linejoin="round" stroke-width="0.65"/>
        </g>
        <g id="Group_176" data-name="Group 176" transform="translate(0 0)" opacity="0.2">
          <path id="Path_539-2" data-name="Path 539" d="M2933.451,831.4v26.421l-22.423,14.051-23.532-.006" transform="translate(-2887.496 -831.404)" fill="none" stroke="#00bad5" stroke-linecap="round" stroke-linejoin="round" stroke-width="10"/>
          <path id="Path_540-2" data-name="Path 540" d="M2933.451,831.4v26.421l-22.423,14.051-23.532-.006" transform="translate(-2887.496 -831.404)" fill="none" stroke="#00bad5" stroke-linecap="round" stroke-linejoin="round" stroke-width="10"/>
          <path id="Path_541-2" data-name="Path 541" d="M2933.451,831.4v26.421l-22.423,14.051-23.532-.006" transform="translate(-2887.496 -831.404)" fill="none" stroke="#00bad5" stroke-linecap="round" stroke-linejoin="round" stroke-width="10"/>
          <path id="Path_542-2" data-name="Path 542" d="M2933.451,831.4v26.421l-22.423,14.051-23.532-.006" transform="translate(-2887.496 -831.404)" fill="none" stroke="#00bad5" stroke-linecap="round" stroke-linejoin="round" stroke-width="10"/>
          <path id="Path_543-2" data-name="Path 543" d="M2933.451,831.4v26.421l-22.423,14.051-23.532-.006" transform="translate(-2887.496 -831.404)" fill="none" stroke="#00bad5" stroke-linecap="round" stroke-linejoin="round" stroke-width="10"/>
          <path id="Path_544-2" data-name="Path 544" d="M2933.451,831.4v26.421l-22.423,14.051-23.532-.006" transform="translate(-2887.496 -831.404)" fill="none" stroke="#00bad5" stroke-linecap="round" stroke-linejoin="round" stroke-width="10"/>
          <path id="Path_545-2" data-name="Path 545" d="M2933.451,831.4v26.421l-22.423,14.051-23.532-.006" transform="translate(-2887.496 -831.404)" fill="none" stroke="#00bad5" stroke-linecap="round" stroke-linejoin="round" stroke-width="10"/>
          <path id="Path_546-2" data-name="Path 546" d="M2933.451,831.4v26.421l-22.423,14.051-23.532-.006" transform="translate(-2887.496 -831.404)" fill="none" stroke="#00bad5" stroke-linecap="round" stroke-linejoin="round" stroke-width="10"/>
        </g>
        <g id="Group_177" data-name="Group 177" transform="translate(0 0)" opacity="0.25">
          <path id="Path_539-3" data-name="Path 539" d="M2933.451,831.4v26.421l-22.423,14.051-23.532-.006" transform="translate(-2887.496 -831.404)" fill="none" stroke="#00bad5" stroke-linecap="round" stroke-linejoin="round" stroke-width="8.5"/>
          <path id="Path_540-3" data-name="Path 540" d="M2933.451,831.4v26.421l-22.423,14.051-23.532-.006" transform="translate(-2887.496 -831.404)" fill="none" stroke="#00bad5" stroke-linecap="round" stroke-linejoin="round" stroke-width="8.5"/>
          <path id="Path_541-3" data-name="Path 541" d="M2933.451,831.4v26.421l-22.423,14.051-23.532-.006" transform="translate(-2887.496 -831.404)" fill="none" stroke="#00bad5" stroke-linecap="round" stroke-linejoin="round" stroke-width="8.5"/>
          <path id="Path_542-3" data-name="Path 542" d="M2933.451,831.4v26.421l-22.423,14.051-23.532-.006" transform="translate(-2887.496 -831.404)" fill="none" stroke="#00bad5" stroke-linecap="round" stroke-linejoin="round" stroke-width="8.5"/>
          <path id="Path_543-3" data-name="Path 543" d="M2933.451,831.4v26.421l-22.423,14.051-23.532-.006" transform="translate(-2887.496 -831.404)" fill="none" stroke="#00bad5" stroke-linecap="round" stroke-linejoin="round" stroke-width="8.5"/>
          <path id="Path_544-3" data-name="Path 544" d="M2933.451,831.4v26.421l-22.423,14.051-23.532-.006" transform="translate(-2887.496 -831.404)" fill="none" stroke="#00bad5" stroke-linecap="round" stroke-linejoin="round" stroke-width="8.5"/>
          <path id="Path_545-3" data-name="Path 545" d="M2933.451,831.4v26.421l-22.423,14.051-23.532-.006" transform="translate(-2887.496 -831.404)" fill="none" stroke="#00bad5" stroke-linecap="round" stroke-linejoin="round" stroke-width="8.5"/>
          <path id="Path_546-3" data-name="Path 546" d="M2933.451,831.4v26.421l-22.423,14.051-23.532-.006" transform="translate(-2887.496 -831.404)" fill="none" stroke="#00bad5" stroke-linecap="round" stroke-linejoin="round" stroke-width="8.5"/>
        </g>
        <g id="Group_178" data-name="Group 178" transform="translate(0 0)" opacity="0.3">
          <path id="Path_539-4" data-name="Path 539" d="M2933.451,831.4v26.421l-22.423,14.051-23.532-.006" transform="translate(-2887.496 -831.404)" fill="none" stroke="#00bad5" stroke-linecap="round" stroke-linejoin="round" stroke-width="5"/>
          <path id="Path_540-4" data-name="Path 540" d="M2933.451,831.4v26.421l-22.423,14.051-23.532-.006" transform="translate(-2887.496 -831.404)" fill="none" stroke="#00bad5" stroke-linecap="round" stroke-linejoin="round" stroke-width="5"/>
          <path id="Path_541-4" data-name="Path 541" d="M2933.451,831.4v26.421l-22.423,14.051-23.532-.006" transform="translate(-2887.496 -831.404)" fill="none" stroke="#00bad5" stroke-linecap="round" stroke-linejoin="round" stroke-width="5"/>
          <path id="Path_542-4" data-name="Path 542" d="M2933.451,831.4v26.421l-22.423,14.051-23.532-.006" transform="translate(-2887.496 -831.404)" fill="none" stroke="#00bad5" stroke-linecap="round" stroke-linejoin="round" stroke-width="5"/>
          <path id="Path_543-4" data-name="Path 543" d="M2933.451,831.4v26.421l-22.423,14.051-23.532-.006" transform="translate(-2887.496 -831.404)" fill="none" stroke="#00bad5" stroke-linecap="round" stroke-linejoin="round" stroke-width="5"/>
          <path id="Path_544-4" data-name="Path 544" d="M2933.451,831.4v26.421l-22.423,14.051-23.532-.006" transform="translate(-2887.496 -831.404)" fill="none" stroke="#00bad5" stroke-linecap="round" stroke-linejoin="round" stroke-width="5"/>
          <path id="Path_545-4" data-name="Path 545" d="M2933.451,831.4v26.421l-22.423,14.051-23.532-.006" transform="translate(-2887.496 -831.404)" fill="none" stroke="#00bad5" stroke-linecap="round" stroke-linejoin="round" stroke-width="5"/>
          <path id="Path_546-4" data-name="Path 546" d="M2933.451,831.4v26.421l-22.423,14.051-23.532-.006" transform="translate(-2887.496 -831.404)" fill="none" stroke="#00bad5" stroke-linecap="round" stroke-linejoin="round" stroke-width="5"/>
        </g>
        <g id="Group_179" data-name="Group 179" transform="translate(0 0)">
          <path id="Path_539-5" data-name="Path 539" d="M2933.451,831.4v26.421l-22.423,14.051-23.532-.006" transform="translate(-2887.496 -831.404)" fill="none" stroke="#00bbd5" stroke-linecap="round" stroke-linejoin="round" stroke-width="7"/>
          <path id="Path_540-5" data-name="Path 540" d="M2933.451,831.4v26.421l-22.423,14.051-23.532-.006" transform="translate(-2887.496 -831.404)" fill="none" stroke="#00bbd5" stroke-linecap="round" stroke-linejoin="round" stroke-width="7"/>
          <path id="Path_541-5" data-name="Path 541" d="M2933.451,831.4v26.421l-22.423,14.051-23.532-.006" transform="translate(-2887.496 -831.404)" fill="none" stroke="#00bbd5" stroke-linecap="round" stroke-linejoin="round" stroke-width="7"/>
          <path id="Path_542-5" data-name="Path 542" d="M2933.451,831.4v26.421l-22.423,14.051-23.532-.006" transform="translate(-2887.496 -831.404)" fill="none" stroke="#00bbd5" stroke-linecap="round" stroke-linejoin="round" stroke-width="7"/>
          <path id="Path_543-5" data-name="Path 543" d="M2933.451,831.4v26.421l-22.423,14.051-23.532-.006" transform="translate(-2887.496 -831.404)" fill="none" stroke="#00bbd5" stroke-linecap="round" stroke-linejoin="round" stroke-width="7"/>
          <path id="Path_544-5" data-name="Path 544" d="M2933.451,831.4v26.421l-22.423,14.051-23.532-.006" transform="translate(-2887.496 -831.404)" fill="none" stroke="#00bbd5" stroke-linecap="round" stroke-linejoin="round" stroke-width="7"/>
          <path id="Path_545-5" data-name="Path 545" d="M2933.451,831.4v26.421l-22.423,14.051-23.532-.006" transform="translate(-2887.496 -831.404)" fill="none" stroke="#00bbd5" stroke-linecap="round" stroke-linejoin="round" stroke-width="7"/>
          <path id="Path_546-5" data-name="Path 546" d="M2933.451,831.4v26.421l-22.423,14.051-23.532-.006" transform="translate(-2887.496 -831.404)" fill="none" stroke="#00bbd5" stroke-linecap="round" stroke-linejoin="round" stroke-width="7"/>
        </g>
        <g id="Group_180" data-name="Group 180" transform="translate(0 0)">
          <path id="Path_539-6" data-name="Path 539" d="M2933.451,831.4v26.421l-22.423,14.051-23.532-.006" transform="translate(-2887.496 -831.404)" fill="none" stroke="#31c1d9" stroke-linecap="round" stroke-linejoin="round" stroke-width="5"/>
          <path id="Path_540-6" data-name="Path 540" d="M2933.451,831.4v26.421l-22.423,14.051-23.532-.006" transform="translate(-2887.496 -831.404)" fill="none" stroke="#31c1d9" stroke-linecap="round" stroke-linejoin="round" stroke-width="5"/>
          <path id="Path_541-6" data-name="Path 541" d="M2933.451,831.4v26.421l-22.423,14.051-23.532-.006" transform="translate(-2887.496 -831.404)" fill="none" stroke="#31c1d9" stroke-linecap="round" stroke-linejoin="round" stroke-width="5"/>
          <path id="Path_542-6" data-name="Path 542" d="M2933.451,831.4v26.421l-22.423,14.051-23.532-.006" transform="translate(-2887.496 -831.404)" fill="none" stroke="#31c1d9" stroke-linecap="round" stroke-linejoin="round" stroke-width="5"/>
          <path id="Path_543-6" data-name="Path 543" d="M2933.451,831.4v26.421l-22.423,14.051-23.532-.006" transform="translate(-2887.496 -831.404)" fill="none" stroke="#31c1d9" stroke-linecap="round" stroke-linejoin="round" stroke-width="5"/>
          <path id="Path_544-6" data-name="Path 544" d="M2933.451,831.4v26.421l-22.423,14.051-23.532-.006" transform="translate(-2887.496 -831.404)" fill="none" stroke="#31c1d9" stroke-linecap="round" stroke-linejoin="round" stroke-width="5"/>
          <path id="Path_545-6" data-name="Path 545" d="M2933.451,831.4v26.421l-22.423,14.051-23.532-.006" transform="translate(-2887.496 -831.404)" fill="none" stroke="#31c1d9" stroke-linecap="round" stroke-linejoin="round" stroke-width="5"/>
          <path id="Path_546-6" data-name="Path 546" d="M2933.451,831.4v26.421l-22.423,14.051-23.532-.006" transform="translate(-2887.496 -831.404)" fill="none" stroke="#31c1d9" stroke-linecap="round" stroke-linejoin="round" stroke-width="5"/>
        </g>
        <g id="Group_181" data-name="Group 181" transform="translate(0 0)">
          <path id="Path_539-7" data-name="Path 539" d="M2933.451,831.4v26.421l-22.423,14.051-23.532-.006" transform="translate(-2887.496 -831.404)" fill="none" stroke="#26c0d8" stroke-linecap="round" stroke-linejoin="round" stroke-width="4"/>
          <path id="Path_540-7" data-name="Path 540" d="M2933.451,831.4v26.421l-22.423,14.051-23.532-.006" transform="translate(-2887.496 -831.404)" fill="none" stroke="#26c0d8" stroke-linecap="round" stroke-linejoin="round" stroke-width="4"/>
          <path id="Path_541-7" data-name="Path 541" d="M2933.451,831.4v26.421l-22.423,14.051-23.532-.006" transform="translate(-2887.496 -831.404)" fill="none" stroke="#26c0d8" stroke-linecap="round" stroke-linejoin="round" stroke-width="4"/>
          <path id="Path_542-7" data-name="Path 542" d="M2933.451,831.4v26.421l-22.423,14.051-23.532-.006" transform="translate(-2887.496 -831.404)" fill="none" stroke="#26c0d8" stroke-linecap="round" stroke-linejoin="round" stroke-width="4"/>
          <path id="Path_543-7" data-name="Path 543" d="M2933.451,831.4v26.421l-22.423,14.051-23.532-.006" transform="translate(-2887.496 -831.404)" fill="none" stroke="#26c0d8" stroke-linecap="round" stroke-linejoin="round" stroke-width="4"/>
          <path id="Path_544-7" data-name="Path 544" d="M2933.451,831.4v26.421l-22.423,14.051-23.532-.006" transform="translate(-2887.496 -831.404)" fill="none" stroke="#26c0d8" stroke-linecap="round" stroke-linejoin="round" stroke-width="4"/>
          <path id="Path_545-7" data-name="Path 545" d="M2933.451,831.4v26.421l-22.423,14.051-23.532-.006" transform="translate(-2887.496 -831.404)" fill="none" stroke="#26c0d8" stroke-linecap="round" stroke-linejoin="round" stroke-width="4"/>
          <path id="Path_546-7" data-name="Path 546" d="M2933.451,831.4v26.421l-22.423,14.051-23.532-.006" transform="translate(-2887.496 -831.404)" fill="none" stroke="#26c0d8" stroke-linecap="round" stroke-linejoin="round" stroke-width="4"/>
        </g>
        <g id="Group_182" data-name="Group 182" transform="translate(0 0)">
          <path id="Path_539-8" data-name="Path 539" d="M2933.451,831.4v26.421l-22.423,14.051-23.532-.006" transform="translate(-2887.496 -831.404)" fill="none" stroke="#63cae0" stroke-linecap="round" stroke-linejoin="round" stroke-width="3"/>
          <path id="Path_540-8" data-name="Path 540" d="M2933.451,831.4v26.421l-22.423,14.051-23.532-.006" transform="translate(-2887.496 -831.404)" fill="none" stroke="#63cae0" stroke-linecap="round" stroke-linejoin="round" stroke-width="3"/>
          <path id="Path_541-8" data-name="Path 541" d="M2933.451,831.4v26.421l-22.423,14.051-23.532-.006" transform="translate(-2887.496 -831.404)" fill="none" stroke="#63cae0" stroke-linecap="round" stroke-linejoin="round" stroke-width="3"/>
          <path id="Path_542-8" data-name="Path 542" d="M2933.451,831.4v26.421l-22.423,14.051-23.532-.006" transform="translate(-2887.496 -831.404)" fill="none" stroke="#63cae0" stroke-linecap="round" stroke-linejoin="round" stroke-width="3"/>
          <path id="Path_543-8" data-name="Path 543" d="M2933.451,831.4v26.421l-22.423,14.051-23.532-.006" transform="translate(-2887.496 -831.404)" fill="none" stroke="#63cae0" stroke-linecap="round" stroke-linejoin="round" stroke-width="3"/>
          <path id="Path_544-8" data-name="Path 544" d="M2933.451,831.4v26.421l-22.423,14.051-23.532-.006" transform="translate(-2887.496 -831.404)" fill="none" stroke="#63cae0" stroke-linecap="round" stroke-linejoin="round" stroke-width="3"/>
          <path id="Path_545-8" data-name="Path 545" d="M2933.451,831.4v26.421l-22.423,14.051-23.532-.006" transform="translate(-2887.496 -831.404)" fill="none" stroke="#63cae0" stroke-linecap="round" stroke-linejoin="round" stroke-width="3"/>
          <path id="Path_546-8" data-name="Path 546" d="M2933.451,831.4v26.421l-22.423,14.051-23.532-.006" transform="translate(-2887.496 -831.404)" fill="none" stroke="#63cae0" stroke-linecap="round" stroke-linejoin="round" stroke-width="3"/>
        </g>
        <g id="Group_183" data-name="Group 183" transform="translate(0 0)">
          <path id="Path_539-9" data-name="Path 539" d="M2933.451,831.4v26.421l-22.423,14.051-23.532-.006" transform="translate(-2887.496 -831.404)" fill="none" stroke="#92d7e6" stroke-linecap="round" stroke-linejoin="round" stroke-width="1"/>
          <path id="Path_540-9" data-name="Path 540" d="M2933.451,831.4v26.421l-22.423,14.051-23.532-.006" transform="translate(-2887.496 -831.404)" fill="none" stroke="#92d7e6" stroke-linecap="round" stroke-linejoin="round" stroke-width="1"/>
          <path id="Path_541-9" data-name="Path 541" d="M2933.451,831.4v26.421l-22.423,14.051-23.532-.006" transform="translate(-2887.496 -831.404)" fill="none" stroke="#92d7e6" stroke-linecap="round" stroke-linejoin="round" stroke-width="1"/>
          <path id="Path_542-9" data-name="Path 542" d="M2933.451,831.4v26.421l-22.423,14.051-23.532-.006" transform="translate(-2887.496 -831.404)" fill="none" stroke="#92d7e6" stroke-linecap="round" stroke-linejoin="round" stroke-width="1"/>
          <path id="Path_543-9" data-name="Path 543" d="M2933.451,831.4v26.421l-22.423,14.051-23.532-.006" transform="translate(-2887.496 -831.404)" fill="none" stroke="#92d7e6" stroke-linecap="round" stroke-linejoin="round" stroke-width="1"/>
          <path id="Path_544-9" data-name="Path 544" d="M2933.451,831.4v26.421l-22.423,14.051-23.532-.006" transform="translate(-2887.496 -831.404)" fill="none" stroke="#92d7e6" stroke-linecap="round" stroke-linejoin="round" stroke-width="1"/>
          <path id="Path_545-9" data-name="Path 545" d="M2933.451,831.4v26.421l-22.423,14.051-23.532-.006" transform="translate(-2887.496 -831.404)" fill="none" stroke="#92d7e6" stroke-linecap="round" stroke-linejoin="round" stroke-width="1"/>
          <path id="Path_546-9" data-name="Path 546" d="M2933.451,831.4v26.421l-22.423,14.051-23.532-.006" transform="translate(-2887.496 -831.404)" fill="none" stroke="#fff" stroke-linecap="round" stroke-linejoin="round" stroke-width="1"/>
        </g>
      </g>
      <g id="Group_140-2" data-name="Group 140" transform="translate(13.977 14.343)">
        <g id="Group_175-2" data-name="Group 175" transform="translate(0 0)">
          <path id="Path_539-10" data-name="Path 539" d="M2887.5,871.875v-26.42l22.423-14.051,23.532.006" transform="translate(-2887.496 -831.404)" fill="none" stroke="#90cfe0" stroke-linecap="round" stroke-linejoin="round" stroke-width="7" opacity="0.2" style="isolation: isolate"/>
          <path id="Path_540-10" data-name="Path 540" d="M2887.5,871.875v-26.42l22.423-14.051,23.532.006" transform="translate(-2887.496 -831.404)" fill="none" stroke="#7dc8dc" stroke-linecap="round" stroke-linejoin="round" stroke-width="6" opacity="0.25" style="isolation: isolate"/>
          <path id="Path_541-10" data-name="Path 541" d="M2887.5,871.875v-26.42l22.423-14.051,23.532.006" transform="translate(-2887.496 -831.404)" fill="none" stroke="#3ab7d1" stroke-linecap="round" stroke-linejoin="round" stroke-width="5" opacity="0.3" style="isolation: isolate"/>
          <path id="Path_542-10" data-name="Path 542" d="M2887.5,871.875v-26.42l22.423-14.051,23.532.006" transform="translate(-2887.496 -831.404)" fill="none" stroke="#3ab7d1" stroke-linecap="round" stroke-linejoin="round" stroke-width="4"/>
          <path id="Path_543-10" data-name="Path 543" d="M2887.5,871.875v-26.42l22.423-14.051,23.532.006" transform="translate(-2887.496 -831.404)" fill="none" stroke="#5fbfd6" stroke-linecap="round" stroke-linejoin="round" stroke-width="3.25"/>
          <path id="Path_544-10" data-name="Path 544" d="M2887.5,871.875v-26.42l22.423-14.051,23.532.006" transform="translate(-2887.496 -831.404)" fill="none" stroke="#7cc8db" stroke-linecap="round" stroke-linejoin="round" stroke-width="2.5"/>
          <path id="Path_545-10" data-name="Path 545" d="M2887.5,871.875v-26.42l22.423-14.051,23.532.006" transform="translate(-2887.496 -831.404)" fill="none" stroke="#9dd4e3" stroke-linecap="round" stroke-linejoin="round" stroke-width="1.65"/>
          <path id="Path_546-10" data-name="Path 546" d="M2887.5,871.875v-26.42l22.423-14.051,23.532.006" transform="translate(-2887.496 -831.404)" fill="none" stroke="#cae6ee" stroke-linecap="round" stroke-linejoin="round" stroke-width="0.65"/>
        </g>
        <g id="Group_176-2" data-name="Group 176" transform="translate(0 0)" opacity="0.2">
          <path id="Path_539-11" data-name="Path 539" d="M2887.5,871.875v-26.42l22.423-14.051,23.532.006" transform="translate(-2887.496 -831.404)" fill="none" stroke="#00bad5" stroke-linecap="round" stroke-linejoin="round" stroke-width="10"/>
          <path id="Path_540-11" data-name="Path 540" d="M2887.5,871.875v-26.42l22.423-14.051,23.532.006" transform="translate(-2887.496 -831.404)" fill="none" stroke="#00bad5" stroke-linecap="round" stroke-linejoin="round" stroke-width="10"/>
          <path id="Path_541-11" data-name="Path 541" d="M2887.5,871.875v-26.42l22.423-14.051,23.532.006" transform="translate(-2887.496 -831.404)" fill="none" stroke="#00bad5" stroke-linecap="round" stroke-linejoin="round" stroke-width="10"/>
          <path id="Path_542-11" data-name="Path 542" d="M2887.5,871.875v-26.42l22.423-14.051,23.532.006" transform="translate(-2887.496 -831.404)" fill="none" stroke="#00bad5" stroke-linecap="round" stroke-linejoin="round" stroke-width="10"/>
          <path id="Path_543-11" data-name="Path 543" d="M2887.5,871.875v-26.42l22.423-14.051,23.532.006" transform="translate(-2887.496 -831.404)" fill="none" stroke="#00bad5" stroke-linecap="round" stroke-linejoin="round" stroke-width="10"/>
          <path id="Path_544-11" data-name="Path 544" d="M2887.5,871.875v-26.42l22.423-14.051,23.532.006" transform="translate(-2887.496 -831.404)" fill="none" stroke="#00bad5" stroke-linecap="round" stroke-linejoin="round" stroke-width="10"/>
          <path id="Path_545-11" data-name="Path 545" d="M2887.5,871.875v-26.42l22.423-14.051,23.532.006" transform="translate(-2887.496 -831.404)" fill="none" stroke="#00bad5" stroke-linecap="round" stroke-linejoin="round" stroke-width="10"/>
          <path id="Path_546-11" data-name="Path 546" d="M2887.5,871.875v-26.42l22.423-14.051,23.532.006" transform="translate(-2887.496 -831.404)" fill="none" stroke="#00bad5" stroke-linecap="round" stroke-linejoin="round" stroke-width="10"/>
        </g>
        <g id="Group_177-2" data-name="Group 177" transform="translate(0 0)" opacity="0.25">
          <path id="Path_539-12" data-name="Path 539" d="M2887.5,871.875v-26.42l22.423-14.051,23.532.006" transform="translate(-2887.496 -831.404)" fill="none" stroke="#00bad5" stroke-linecap="round" stroke-linejoin="round" stroke-width="8.5"/>
          <path id="Path_540-12" data-name="Path 540" d="M2887.5,871.875v-26.42l22.423-14.051,23.532.006" transform="translate(-2887.496 -831.404)" fill="none" stroke="#00bad5" stroke-linecap="round" stroke-linejoin="round" stroke-width="8.5"/>
          <path id="Path_541-12" data-name="Path 541" d="M2887.5,871.875v-26.42l22.423-14.051,23.532.006" transform="translate(-2887.496 -831.404)" fill="none" stroke="#00bad5" stroke-linecap="round" stroke-linejoin="round" stroke-width="8.5"/>
          <path id="Path_542-12" data-name="Path 542" d="M2887.5,871.875v-26.42l22.423-14.051,23.532.006" transform="translate(-2887.496 -831.404)" fill="none" stroke="#00bad5" stroke-linecap="round" stroke-linejoin="round" stroke-width="8.5"/>
          <path id="Path_543-12" data-name="Path 543" d="M2887.5,871.875v-26.42l22.423-14.051,23.532.006" transform="translate(-2887.496 -831.404)" fill="none" stroke="#00bad5" stroke-linecap="round" stroke-linejoin="round" stroke-width="8.5"/>
          <path id="Path_544-12" data-name="Path 544" d="M2887.5,871.875v-26.42l22.423-14.051,23.532.006" transform="translate(-2887.496 -831.404)" fill="none" stroke="#00bad5" stroke-linecap="round" stroke-linejoin="round" stroke-width="8.5"/>
          <path id="Path_545-12" data-name="Path 545" d="M2887.5,871.875v-26.42l22.423-14.051,23.532.006" transform="translate(-2887.496 -831.404)" fill="none" stroke="#00bad5" stroke-linecap="round" stroke-linejoin="round" stroke-width="8.5"/>
          <path id="Path_546-12" data-name="Path 546" d="M2887.5,871.875v-26.42l22.423-14.051,23.532.006" transform="translate(-2887.496 -831.404)" fill="none" stroke="#00bad5" stroke-linecap="round" stroke-linejoin="round" stroke-width="8.5"/>
        </g>
        <g id="Group_178-2" data-name="Group 178" transform="translate(0 0)" opacity="0.3">
          <path id="Path_539-13" data-name="Path 539" d="M2887.5,871.875v-26.42l22.423-14.051,23.532.006" transform="translate(-2887.496 -831.404)" fill="none" stroke="#00bad5" stroke-linecap="round" stroke-linejoin="round" stroke-width="5"/>
          <path id="Path_540-13" data-name="Path 540" d="M2887.5,871.875v-26.42l22.423-14.051,23.532.006" transform="translate(-2887.496 -831.404)" fill="none" stroke="#00bad5" stroke-linecap="round" stroke-linejoin="round" stroke-width="5"/>
          <path id="Path_541-13" data-name="Path 541" d="M2887.5,871.875v-26.42l22.423-14.051,23.532.006" transform="translate(-2887.496 -831.404)" fill="none" stroke="#00bad5" stroke-linecap="round" stroke-linejoin="round" stroke-width="5"/>
          <path id="Path_542-13" data-name="Path 542" d="M2887.5,871.875v-26.42l22.423-14.051,23.532.006" transform="translate(-2887.496 -831.404)" fill="none" stroke="#00bad5" stroke-linecap="round" stroke-linejoin="round" stroke-width="5"/>
          <path id="Path_543-13" data-name="Path 543" d="M2887.5,871.875v-26.42l22.423-14.051,23.532.006" transform="translate(-2887.496 -831.404)" fill="none" stroke="#00bad5" stroke-linecap="round" stroke-linejoin="round" stroke-width="5"/>
          <path id="Path_544-13" data-name="Path 544" d="M2887.5,871.875v-26.42l22.423-14.051,23.532.006" transform="translate(-2887.496 -831.404)" fill="none" stroke="#00bad5" stroke-linecap="round" stroke-linejoin="round" stroke-width="5"/>
          <path id="Path_545-13" data-name="Path 545" d="M2887.5,871.875v-26.42l22.423-14.051,23.532.006" transform="translate(-2887.496 -831.404)" fill="none" stroke="#00bad5" stroke-linecap="round" stroke-linejoin="round" stroke-width="5"/>
          <path id="Path_546-13" data-name="Path 546" d="M2887.5,871.875v-26.42l22.423-14.051,23.532.006" transform="translate(-2887.496 -831.404)" fill="none" stroke="#00bad5" stroke-linecap="round" stroke-linejoin="round" stroke-width="5"/>
        </g>
        <g id="Group_179-2" data-name="Group 179" transform="translate(0 0)">
          <path id="Path_539-14" data-name="Path 539" d="M2887.5,871.875v-26.42l22.423-14.051,23.532.006" transform="translate(-2887.496 -831.404)" fill="none" stroke="#00bbd5" stroke-linecap="round" stroke-linejoin="round" stroke-width="7"/>
          <path id="Path_540-14" data-name="Path 540" d="M2887.5,871.875v-26.42l22.423-14.051,23.532.006" transform="translate(-2887.496 -831.404)" fill="none" stroke="#00bbd5" stroke-linecap="round" stroke-linejoin="round" stroke-width="7"/>
          <path id="Path_541-14" data-name="Path 541" d="M2887.5,871.875v-26.42l22.423-14.051,23.532.006" transform="translate(-2887.496 -831.404)" fill="none" stroke="#00bbd5" stroke-linecap="round" stroke-linejoin="round" stroke-width="7"/>
          <path id="Path_542-14" data-name="Path 542" d="M2887.5,871.875v-26.42l22.423-14.051,23.532.006" transform="translate(-2887.496 -831.404)" fill="none" stroke="#00bbd5" stroke-linecap="round" stroke-linejoin="round" stroke-width="7"/>
          <path id="Path_543-14" data-name="Path 543" d="M2887.5,871.875v-26.42l22.423-14.051,23.532.006" transform="translate(-2887.496 -831.404)" fill="none" stroke="#00bbd5" stroke-linecap="round" stroke-linejoin="round" stroke-width="7"/>
          <path id="Path_544-14" data-name="Path 544" d="M2887.5,871.875v-26.42l22.423-14.051,23.532.006" transform="translate(-2887.496 -831.404)" fill="none" stroke="#00bbd5" stroke-linecap="round" stroke-linejoin="round" stroke-width="7"/>
          <path id="Path_545-14" data-name="Path 545" d="M2887.5,871.875v-26.42l22.423-14.051,23.532.006" transform="translate(-2887.496 -831.404)" fill="none" stroke="#00bbd5" stroke-linecap="round" stroke-linejoin="round" stroke-width="7"/>
          <path id="Path_546-14" data-name="Path 546" d="M2887.5,871.875v-26.42l22.423-14.051,23.532.006" transform="translate(-2887.496 -831.404)" fill="none" stroke="#00bbd5" stroke-linecap="round" stroke-linejoin="round" stroke-width="7"/>
        </g>
        <g id="Group_180-2" data-name="Group 180" transform="translate(0 0)">
          <path id="Path_539-15" data-name="Path 539" d="M2887.5,871.875v-26.42l22.423-14.051,23.532.006" transform="translate(-2887.496 -831.404)" fill="none" stroke="#31c1d9" stroke-linecap="round" stroke-linejoin="round" stroke-width="5"/>
          <path id="Path_540-15" data-name="Path 540" d="M2887.5,871.875v-26.42l22.423-14.051,23.532.006" transform="translate(-2887.496 -831.404)" fill="none" stroke="#31c1d9" stroke-linecap="round" stroke-linejoin="round" stroke-width="5"/>
          <path id="Path_541-15" data-name="Path 541" d="M2887.5,871.875v-26.42l22.423-14.051,23.532.006" transform="translate(-2887.496 -831.404)" fill="none" stroke="#31c1d9" stroke-linecap="round" stroke-linejoin="round" stroke-width="5"/>
          <path id="Path_542-15" data-name="Path 542" d="M2887.5,871.875v-26.42l22.423-14.051,23.532.006" transform="translate(-2887.496 -831.404)" fill="none" stroke="#31c1d9" stroke-linecap="round" stroke-linejoin="round" stroke-width="5"/>
          <path id="Path_543-15" data-name="Path 543" d="M2887.5,871.875v-26.42l22.423-14.051,23.532.006" transform="translate(-2887.496 -831.404)" fill="none" stroke="#31c1d9" stroke-linecap="round" stroke-linejoin="round" stroke-width="5"/>
          <path id="Path_544-15" data-name="Path 544" d="M2887.5,871.875v-26.42l22.423-14.051,23.532.006" transform="translate(-2887.496 -831.404)" fill="none" stroke="#31c1d9" stroke-linecap="round" stroke-linejoin="round" stroke-width="5"/>
          <path id="Path_545-15" data-name="Path 545" d="M2887.5,871.875v-26.42l22.423-14.051,23.532.006" transform="translate(-2887.496 -831.404)" fill="none" stroke="#31c1d9" stroke-linecap="round" stroke-linejoin="round" stroke-width="5"/>
          <path id="Path_546-15" data-name="Path 546" d="M2887.5,871.875v-26.42l22.423-14.051,23.532.006" transform="translate(-2887.496 -831.404)" fill="none" stroke="#31c1d9" stroke-linecap="round" stroke-linejoin="round" stroke-width="5"/>
        </g>
        <g id="Group_181-2" data-name="Group 181" transform="translate(0 0)">
          <path id="Path_539-16" data-name="Path 539" d="M2887.5,871.875v-26.42l22.423-14.051,23.532.006" transform="translate(-2887.496 -831.404)" fill="none" stroke="#26c0d8" stroke-linecap="round" stroke-linejoin="round" stroke-width="4"/>
          <path id="Path_540-16" data-name="Path 540" d="M2887.5,871.875v-26.42l22.423-14.051,23.532.006" transform="translate(-2887.496 -831.404)" fill="none" stroke="#26c0d8" stroke-linecap="round" stroke-linejoin="round" stroke-width="4"/>
          <path id="Path_541-16" data-name="Path 541" d="M2887.5,871.875v-26.42l22.423-14.051,23.532.006" transform="translate(-2887.496 -831.404)" fill="none" stroke="#26c0d8" stroke-linecap="round" stroke-linejoin="round" stroke-width="4"/>
          <path id="Path_542-16" data-name="Path 542" d="M2887.5,871.875v-26.42l22.423-14.051,23.532.006" transform="translate(-2887.496 -831.404)" fill="none" stroke="#26c0d8" stroke-linecap="round" stroke-linejoin="round" stroke-width="4"/>
          <path id="Path_543-16" data-name="Path 543" d="M2887.5,871.875v-26.42l22.423-14.051,23.532.006" transform="translate(-2887.496 -831.404)" fill="none" stroke="#26c0d8" stroke-linecap="round" stroke-linejoin="round" stroke-width="4"/>
          <path id="Path_544-16" data-name="Path 544" d="M2887.5,871.875v-26.42l22.423-14.051,23.532.006" transform="translate(-2887.496 -831.404)" fill="none" stroke="#26c0d8" stroke-linecap="round" stroke-linejoin="round" stroke-width="4"/>
          <path id="Path_545-16" data-name="Path 545" d="M2887.5,871.875v-26.42l22.423-14.051,23.532.006" transform="translate(-2887.496 -831.404)" fill="none" stroke="#26c0d8" stroke-linecap="round" stroke-linejoin="round" stroke-width="4"/>
          <path id="Path_546-16" data-name="Path 546" d="M2887.5,871.875v-26.42l22.423-14.051,23.532.006" transform="translate(-2887.496 -831.404)" fill="none" stroke="#26c0d8" stroke-linecap="round" stroke-linejoin="round" stroke-width="4"/>
        </g>
        <g id="Group_182-2" data-name="Group 182" transform="translate(0 0)">
          <path id="Path_539-17" data-name="Path 539" d="M2887.5,871.875v-26.42l22.423-14.051,23.532.006" transform="translate(-2887.496 -831.404)" fill="none" stroke="#63cae0" stroke-linecap="round" stroke-linejoin="round" stroke-width="3"/>
          <path id="Path_540-17" data-name="Path 540" d="M2887.5,871.875v-26.42l22.423-14.051,23.532.006" transform="translate(-2887.496 -831.404)" fill="none" stroke="#63cae0" stroke-linecap="round" stroke-linejoin="round" stroke-width="3"/>
          <path id="Path_541-17" data-name="Path 541" d="M2887.5,871.875v-26.42l22.423-14.051,23.532.006" transform="translate(-2887.496 -831.404)" fill="none" stroke="#63cae0" stroke-linecap="round" stroke-linejoin="round" stroke-width="3"/>
          <path id="Path_542-17" data-name="Path 542" d="M2887.5,871.875v-26.42l22.423-14.051,23.532.006" transform="translate(-2887.496 -831.404)" fill="none" stroke="#63cae0" stroke-linecap="round" stroke-linejoin="round" stroke-width="3"/>
          <path id="Path_543-17" data-name="Path 543" d="M2887.5,871.875v-26.42l22.423-14.051,23.532.006" transform="translate(-2887.496 -831.404)" fill="none" stroke="#63cae0" stroke-linecap="round" stroke-linejoin="round" stroke-width="3"/>
          <path id="Path_544-17" data-name="Path 544" d="M2887.5,871.875v-26.42l22.423-14.051,23.532.006" transform="translate(-2887.496 -831.404)" fill="none" stroke="#63cae0" stroke-linecap="round" stroke-linejoin="round" stroke-width="3"/>
          <path id="Path_545-17" data-name="Path 545" d="M2887.5,871.875v-26.42l22.423-14.051,23.532.006" transform="translate(-2887.496 -831.404)" fill="none" stroke="#63cae0" stroke-linecap="round" stroke-linejoin="round" stroke-width="3"/>
          <path id="Path_546-17" data-name="Path 546" d="M2887.5,871.875v-26.42l22.423-14.051,23.532.006" transform="translate(-2887.496 -831.404)" fill="none" stroke="#63cae0" stroke-linecap="round" stroke-linejoin="round" stroke-width="3"/>
        </g>
        <g id="Group_183-2" data-name="Group 183" transform="translate(0 0)">
          <path id="Path_539-18" data-name="Path 539" d="M2887.5,871.875v-26.42l22.423-14.051,23.532.006" transform="translate(-2887.496 -831.404)" fill="none" stroke="#92d7e6" stroke-linecap="round" stroke-linejoin="round" stroke-width="1"/>
          <path id="Path_540-18" data-name="Path 540" d="M2887.5,871.875v-26.42l22.423-14.051,23.532.006" transform="translate(-2887.496 -831.404)" fill="none" stroke="#92d7e6" stroke-linecap="round" stroke-linejoin="round" stroke-width="1"/>
          <path id="Path_541-18" data-name="Path 541" d="M2887.5,871.875v-26.42l22.423-14.051,23.532.006" transform="translate(-2887.496 -831.404)" fill="none" stroke="#92d7e6" stroke-linecap="round" stroke-linejoin="round" stroke-width="1"/>
          <path id="Path_542-18" data-name="Path 542" d="M2887.5,871.875v-26.42l22.423-14.051,23.532.006" transform="translate(-2887.496 -831.404)" fill="none" stroke="#92d7e6" stroke-linecap="round" stroke-linejoin="round" stroke-width="1"/>
          <path id="Path_543-18" data-name="Path 543" d="M2887.5,871.875v-26.42l22.423-14.051,23.532.006" transform="translate(-2887.496 -831.404)" fill="none" stroke="#92d7e6" stroke-linecap="round" stroke-linejoin="round" stroke-width="1"/>
          <path id="Path_544-18" data-name="Path 544" d="M2887.5,871.875v-26.42l22.423-14.051,23.532.006" transform="translate(-2887.496 -831.404)" fill="none" stroke="#92d7e6" stroke-linecap="round" stroke-linejoin="round" stroke-width="1"/>
          <path id="Path_545-18" data-name="Path 545" d="M2887.5,871.875v-26.42l22.423-14.051,23.532.006" transform="translate(-2887.496 -831.404)" fill="none" stroke="#92d7e6" stroke-linecap="round" stroke-linejoin="round" stroke-width="1"/>
          <path id="Path_546-18" data-name="Path 546" d="M2887.5,871.875v-26.42l22.423-14.051,23.532.006" transform="translate(-2887.496 -831.404)" fill="none" stroke="#fff" stroke-linecap="round" stroke-linejoin="round" stroke-width="1"/>
        </g>
      </g>
    </g>
  </g>
</svg>
