<svg xmlns="http://www.w3.org/2000/svg" width="321.662" height="18.118" viewBox="0 0 321.662 18.118">
  <g id="bars" transform="translate(0 0.117)">
    <path id="bar1" d="M7335.208,3015.8h11.1l18.777-17.711h-10.661Z" transform="translate(-7335.208 -2997.92)" fill="#f7c26c"/>
    <path id="bar2" d="M7335.208,3015.8h11.1l18.777-17.711h-10.661Z" transform="translate(-7317.479 -2998.093)" fill="#f7c26c" opacity="0.304"/>
    <path id="bar3" d="M7335.208,3015.8h11.1l18.777-17.711h-10.661Z" transform="translate(-7299.561 -2998.093)" fill="#f7c26c" opacity="0.304"/>
    <path id="bar4" d="M7335.208,3015.8h11.1l18.777-17.711h-10.661Z" transform="translate(-7282.334 -2998.093)" fill="#f7c26c" opacity="0.304"/>
    <path id="bar5" d="M7335.208,3015.8h11.1l18.777-17.711h-10.661Z" transform="translate(-7264.246 -2998.093)" fill="#f7c26c" opacity="0.304"/>
    <path id="bar6" d="M7335.208,3015.8h11.1l18.777-17.711h-10.661Z" transform="translate(-7246.007 -2997.92)" fill="#f7c26c" opacity="0.304"/>
    <path id="bar7" d="M7335.208,3015.8h11.1l18.777-17.711h-10.661Z" transform="translate(-7226.783 -2998.093)" fill="#f7c26c" opacity="0.304"/>
    <path id="bar8" d="M7335.208,3015.8h11.1l18.777-17.711h-10.661Z" transform="translate(-7208.141 -2998.093)" fill="#f7c26c" opacity="0.304"/>
    <path id="bar9" d="M7335.208,3015.8h11.1l18.777-17.711h-10.661Z" transform="translate(-7189.5 -2997.92)" fill="#f7c26c" opacity="0.304"/>
    <path id="bar10" d="M7335.208,3015.8h11.1l18.777-17.711h-10.661Z" transform="translate(-7170.275 -2997.92)" fill="#f7c26c" opacity="0.304"/>
    <path id="bar11" d="M7335.209,3013.038h9.582L7361,2998.093h-9.2Z" transform="translate(-7147.794 -2996.537)" fill="#f7c26c" stroke="#f7c26c" stroke-width="3" opacity="0.304"/>
    <path id="bar12" d="M7335.209,3013.038h9.582L7361,2998.093h-9.2Z" transform="translate(-7127.334 -2996.537)" fill="#f7c26c" stroke="#f7c26c" stroke-width="3" opacity="0.304"/>
    <path id="bar13" d="M7335.209,3013.038h9.582L7361,2998.093h-9.2Z" transform="translate(-7105.586 -2996.71)" fill="#f7c26c" stroke="#f7c26c" stroke-width="3" opacity="0.304"/>
    <path id="bar14" d="M7335.209,3013.038h9.582L7361,2998.093h-9.2Z" transform="translate(-7085.076 -2996.537)" fill="#f7c26c" stroke="#f7c26c" stroke-width="3" opacity="0.304"/>
    <path id="bar15" d="M7335.209,3013.038h9.582L7361,2998.093h-9.2Z" transform="translate(-7063.631 -2996.71)" fill="#f7c26c" stroke="#f7c26c" stroke-width="3" opacity="0.304"/>
    <path id="bar16" d="M7335.209,3013.038h9.582L7361,2998.093h-9.2Z" transform="translate(-7043.184 -2996.71)" fill="#f7c26c" stroke="#f7c26c" stroke-width="3" opacity="0.304"/>
  </g>
</svg>
