<svg xmlns="http://www.w3.org/2000/svg" width="362.245" height="37.873" viewBox="0 0 362.245 37.873">
  <g id="border" transform="translate(-231.501 -28.924)">
    <g id="Path_45" data-name="Path 45" transform="translate(-834.708 -435.225)">
      <path id="Path_470" data-name="Path 470" d="M1425.985,469.156l-325.055-1.694-32.19,32.873,326.778-.9Z" fill="#10425d" opacity="0.2"/>
      <path id="Path_471" data-name="Path 471" d="M1425.985,469.156l-325.055-1.694-32.19,32.873,326.778-.9Z" fill="#10425d" opacity="0.25"/>
      <path id="Path_472" data-name="Path 472" d="M1425.985,469.156l-325.055-1.694-32.19,32.873,326.778-.9Z" fill="#10425d" opacity="0.3"/>
      <path id="Path_473" data-name="Path 473" d="M1425.985,469.156l-325.055-1.694-32.19,32.873,326.778-.9Z" fill="#10425d"/>
      <path id="Path_474" data-name="Path 474" d="M1425.985,469.156l-325.055-1.694-32.19,32.873,326.778-.9Z" fill="#10425d"/>
      <path id="Path_475" data-name="Path 475" d="M1425.985,469.156l-325.055-1.694-32.19,32.873,326.778-.9Z" fill="#10425d"/>
      <path id="Path_476" data-name="Path 476" d="M1425.985,469.156l-325.055-1.694-32.19,32.873,326.778-.9Z" fill="#3d5978"/>
    </g>
    <g id="Path_45-2" data-name="Path 45" transform="translate(-834.739 -436.037)">
      <path id="Path_470-2" data-name="Path 470" d="M1425.985,469.156l-325.055-1.694-32.19,32.873,326.778-.9Z" fill="none" stroke="#83a3d2" stroke-linecap="round" stroke-linejoin="round" stroke-width="5" opacity="0.2"/>
      <path id="Path_471-2" data-name="Path 471" d="M1425.985,469.156l-325.055-1.694-32.19,32.873,326.778-.9Z" fill="none" stroke="#7097cb" stroke-linecap="round" stroke-linejoin="round" stroke-width="4" opacity="0.25"/>
      <path id="Path_472-2" data-name="Path 472" d="M1425.985,469.156l-325.055-1.694-32.19,32.873,326.778-.9Z" fill="none" stroke="#618ec6" stroke-linecap="round" stroke-linejoin="round" stroke-width="3.15" opacity="0.3"/>
      <path id="Path_473-2" data-name="Path 473" d="M1425.985,469.156l-325.055-1.694-32.19,32.873,326.778-.9Z" fill="none" stroke="#0672b6" stroke-linecap="round" stroke-linejoin="round" stroke-width="2.5"/>
      <path id="Path_474-2" data-name="Path 474" d="M1425.985,469.156l-325.055-1.694-32.19,32.873,326.778-.9Z" fill="none" stroke="#628fc6" stroke-linecap="round" stroke-linejoin="round" stroke-width="1.95"/>
      <path id="Path_475-2" data-name="Path 475" d="M1425.985,469.156l-325.055-1.694-32.19,32.873,326.778-.9Z" fill="none" stroke="#85a4d2" stroke-linecap="round" stroke-linejoin="round" stroke-width="1.25"/>
      <path id="Path_476-2" data-name="Path 476" d="M1425.985,469.156l-325.055-1.694-32.19,32.873,326.778-.9Z" fill="none" stroke="#adc0e0" stroke-linecap="round" stroke-linejoin="round" stroke-width="0.5"/>
    </g>
  </g>
</svg>
