<svg id="icon2" xmlns="http://www.w3.org/2000/svg" width="213" height="210" viewBox="0 0 213 210">
  <path id="Path_12196" data-name="Path 12196" d="M120.651-15.754c53.161,0,95.4,52.234,95.4,105.285S176.8,171.365,124.736,189.868s-101.6-24.124-119.2-81.27S67.49-15.754,120.651-15.754Z" transform="translate(-3.047 15.754)" fill="#070129" opacity="0.398"/>
  <ellipse id="Ellipse_209" data-name="Ellipse 209" cx="9.5" cy="9" rx="9.5" ry="9" transform="translate(115.659 71.284)" fill="#5c49dd"/>
  <g id="Group_1052" data-name="Group 1052" transform="translate(65.008 35.814)">
    <g id="Group_1044" data-name="Group 1044" transform="translate(7.803)">
      <path id="Path_12186" data-name="Path 12186" d="M1791.334,324.348a1.062,1.062,0,0,0-1.021.016,105.523,105.523,0,0,0-21.127,17.335,1.041,1.041,0,0,0-.272.288,105.667,105.667,0,0,0-13.946,18.239,127.758,127.758,0,0,0-10.489,22.413c-2.657.668-14.205,3.621-17.208,5.175-3.447,1.792-7.261,22.635-8.344,28.982a1.064,1.064,0,0,0,.61,1.149l1.936.876a1.065,1.065,0,0,0,1.4-.51c1.612-3.364,6.459-12.425,9.516-13.918a16.022,16.022,0,0,1,6.361-1.527c-.107.512-.208,1-.3,1.468a1.055,1.055,0,0,0-.05.26c-.647,3.312-.9,5.3-.91,5.368a1.066,1.066,0,0,0,.618,1.1l1.022.462-.04,3.937a1.065,1.065,0,0,0,.626.981l7.222,3.269-3.493,7.719a1.065,1.065,0,0,0,1.94.878l3.493-7.718,7.334,3.319a1.065,1.065,0,0,0,1.15-.177l2.931-2.629,1.022.463a1.065,1.065,0,0,0,1.157-.184c.026-.024.052-.05.076-.077.047-.053,1.373-1.557,3.438-4.235a1.063,1.063,0,0,0,.154-.2c.289-.376.594-.779.909-1.2a15.973,15.973,0,0,1,3.05,5.788c.892,3.281-2.713,12.9-4.177,16.335a1.065,1.065,0,0,0,.54,1.388l1.936.876a1.063,1.063,0,0,0,1.158-.184.99.99,0,0,0,.109-.115c4.053-5,17.2-21.62,16.266-25.4-.814-3.282-6.218-13.908-7.469-16.345a127.778,127.778,0,0,0,9.916-22.671,105.686,105.686,0,0,0,4.5-22.519,1.049,1.049,0,0,0,.037-.386,105.587,105.587,0,0,0-.919-27.317A1.061,1.061,0,0,0,1791.334,324.348Zm-59.882,78.133c-3.727,1.826-8.487,10.862-10.041,13.975l-.245-.111c2.121-12.182,5.4-25.606,7.085-26.64,2.415-1.25,11.427-3.636,15.386-4.654a154.165,154.165,0,0,0-4.422,15.673A18.155,18.155,0,0,0,1731.452,402.481Zm8.81,3.7,10.622,4.807-1.32,2.916-8.936-4.044-.916-.414C1739.812,408.771,1739.99,407.656,1740.261,406.186Zm.964,8.6.024-2.305,7.436,3.365-.87,1.922Zm15.231,6.893-6.7-3.032.87-1.922,7.547,3.416Zm4.1-2.8-9.054-4.1,1.32-2.916,10.732,4.857c-.925,1.174-1.645,2.044-2.09,2.569Zm23.3-4.014c.36,1.96-7.585,13.276-15.336,22.908l-.245-.11c1.313-3.222,4.962-12.759,3.872-16.767a18.158,18.158,0,0,0-3.8-6.991,154.116,154.116,0,0,0,8.857-13.666C1779.055,403.89,1783.209,412.235,1783.863,414.872Zm2.487-40.173c-5.786,18.095-15.9,32.982-21.456,40.3l-11.193-5.066,8.724-19.275a1.065,1.065,0,1,0-1.94-.878l-8.724,19.275-11.083-5.016c1.827-9,6.334-26.416,16.116-42.716a103.656,103.656,0,0,1,13.7-17.91c.715-.279,4.1-1.25,10.911,1.833,6.773,3.065,8.9,6.539,9.352,7.436A103.62,103.62,0,0,1,1786.35,374.7Zm4.663-25.327a25.075,25.075,0,0,0-8.731-6.067,22.851,22.851,0,0,0-9.361-2.374,106.647,106.647,0,0,1,17.23-13.969A106.733,106.733,0,0,1,1791.013,349.371Z" transform="translate(-1718.912 -324.225)" fill="#5c49dd"/>
      <path id="Path_12187" data-name="Path 12187" d="M2156.187,678.063a9.689,9.689,0,1,0,12.822-4.832A9.623,9.623,0,0,0,2156.187,678.063Zm15.715,7.112a7.56,7.56,0,1,1-3.77-10A7.51,7.51,0,0,1,2171.9,685.175Z" transform="translate(-2112.76 -638.417)" fill="#5c49dd"/>
      <path id="Path_12188" data-name="Path 12188" d="M2241.9,717.831a1.065,1.065,0,1,0,.573,2.051,2.072,2.072,0,0,1,2.55,1.436,1.065,1.065,0,1,0,2.051-.573A4.2,4.2,0,0,0,2241.9,717.831Z" transform="translate(-2190.196 -679.305)" fill="#fff" opacity="0.689"/>
      <path id="Path_12189" data-name="Path 12189" d="M1824.33,1513.74a1.065,1.065,0,0,0-1.409.531l-9.163,20.246a1.065,1.065,0,1,0,1.94.878l9.163-20.246A1.065,1.065,0,0,0,1824.33,1513.74Z" transform="translate(-1804.422 -1397.649)" fill="#b75859"/>
      <path id="Path_12190" data-name="Path 12190" d="M1949.359,1533.05l-5.9,13.043a1.065,1.065,0,0,0,1.941.878l5.9-13.043a1.065,1.065,0,0,0-1.941-.877Z" transform="translate(-1921.473 -1414.596)" fill="#b75859"/>
      <path id="Path_12191" data-name="Path 12191" d="M1770.571,1468.3a1.068,1.068,0,0,0,.251-.346l5.9-13.043a1.065,1.065,0,1,0-1.94-.878l-5.9,13.043a1.065,1.065,0,0,0,1.69,1.224Z" transform="translate(-1763.922 -1343.286)" fill="#b75859"/>
      <path id="Path_12192" data-name="Path 12192" d="M2024.685,1453.563l-1.651,3.648a1.065,1.065,0,1,0,1.939.879l1.651-3.648a1.065,1.065,0,0,0-1.939-.879Z" transform="translate(-1993.289 -1342.861)" fill="#b75859"/>
      <path id="Path_12193" data-name="Path 12193" d="M1847.177,1380.059a1.058,1.058,0,0,0,.25-.346l1.94-4.286a1.064,1.064,0,1,0-1.939-.878l-1.94,4.286a1.065,1.065,0,0,0,1.689,1.224Z" transform="translate(-1833.058 -1271.553)" fill="#b75859"/>
      <path id="Path_12194" data-name="Path 12194" d="M1927.589,1436.182l-1.672,3.694a1.065,1.065,0,0,0,1.69,1.224,1.078,1.078,0,0,0,.251-.346l1.671-3.694a1.065,1.065,0,1,0-1.94-.878Z" transform="translate(-1905.644 -1327.175)" fill="#b75859"/>
    </g>
    <path id="Path_12197" data-name="Path 12197" d="M-13081.355-7079.456c.393-.813,15.472-15.622,18.3-14.79s2.022,19.947,1.121,24.021c.008.2-4.468-4.806-8.521-6.508S-13081.747-7078.644-13081.355-7079.456Z" transform="translate(13141.982 7096.329)" fill="#eab477"/>
    <path id="Path_12198" data-name="Path 12198" d="M-13086.967-6952.819l8.859-13.647s7.154,12.607,6.492,14.895-11.248,18.214-13.266,20.359a20.2,20.2,0,0,1-2.3,2.292s4.969-11.171,4.352-15.978A13.946,13.946,0,0,0-13086.967-6952.819Z" transform="translate(13144.272 7042.565)" fill="#eab477" stroke="#e7b276" stroke-width="1"/>
    <path id="Path_12199" data-name="Path 12199" d="M15.394,13.647,6.535,0S-.619,12.607.043,14.894,11.291,33.108,13.31,35.253s2.075,2.455,2.3,2.292-4.968-11.171-4.353-15.978A13.961,13.961,0,0,1,15.394,13.647Z" transform="translate(27.929 55.946) rotate(48)" fill="#eab477" stroke="#e7b276" stroke-width="1"/>
  </g>
  <path id="Path_12200" data-name="Path 12200" d="M-13138.119-6954.157l23.857,10.985" transform="translate(13231.168 7072.647)" fill="none" stroke="#5c49dd" stroke-width="7"/>
  <path id="Path_12201" data-name="Path 12201" d="M0,0,17.65,10.451" transform="matrix(0.996, -0.087, 0.087, 0.996, 94.273, 123.297)" fill="none" stroke="#5c49dd" stroke-width="7"/>
  <g id="Group_1042" data-name="Group 1042" transform="translate(29.265 86.902) rotate(-45)">
    <path id="Path_12175" data-name="Path 12175" d="M.538,1.7A3.6,3.6,0,1,1,1.7,6.653,3.6,3.6,0,0,1,.538,1.7Z" transform="translate(72.453 21.499)" fill="#eab477"/>
    <path id="Path_12176" data-name="Path 12176" d="M.376,1.19A2.511,2.511,0,1,1,1.19,4.647,2.511,2.511,0,0,1,.376,1.19Z" transform="translate(61.95 1.046)" fill="#eab477"/>
    <path id="Path_12177" data-name="Path 12177" d="M3.011,3.7A1.989,1.989,0,1,1,3.7.968,1.989,1.989,0,0,1,3.011,3.7Z" transform="translate(55.704 17.281)" fill="#eab477"/>
    <path id="Path_12178" data-name="Path 12178" d="M.2.631A1.33,1.33,0,1,1,.631,2.461,1.33,1.33,0,0,1,.2.631Z" transform="translate(53.866 32.81)" fill="#eab477"/>
    <circle id="Ellipse_202" data-name="Ellipse 202" cx="1.864" cy="1.864" r="1.864" transform="matrix(0.973, -0.229, 0.229, 0.973, 44.539, 25.354)" fill="#eab477"/>
    <circle id="Ellipse_203" data-name="Ellipse 203" cx="3.557" cy="3.557" r="3.557" transform="translate(33.897 4.408) rotate(-38.286)" fill="#eab477"/>
    <path id="Path_12179" data-name="Path 12179" d="M.16.506A1.067,1.067,0,1,1,.506,1.975,1.067,1.067,0,0,1,.16.506Z" transform="translate(27.116 12.451)" fill="#eab477"/>
    <path id="Path_12180" data-name="Path 12180" d="M.1.315a.665.665,0,1,1,.216.915A.665.665,0,0,1,.1.315Z" transform="translate(19.253 10.868)" fill="#eab477"/>
    <circle id="Ellipse_204" data-name="Ellipse 204" cx="1.809" cy="1.809" r="1.809" transform="matrix(0.974, -0.227, 0.227, 0.974, 9.249, 10.071)" fill="#eab477"/>
    <path id="Path_12181" data-name="Path 12181" d="M.429,1.36a2.869,2.869,0,1,1,.93,3.949A2.869,2.869,0,0,1,.429,1.36Z" transform="translate(0 6.636)" fill="#eab477"/>
  </g>
</svg>
